<?xml version="1.0" encoding="UTF-8"?>
<!DOCTYPE svg PUBLIC "-//W3C//DTD SVG 1.1//EN" "http://www.w3.org/Graphics/SVG/1.1/DTD/svg11.dtd">
<!-- Creator: CorelDRAW 2021 (64-Bit) -->
<svg xmlns="http://www.w3.org/2000/svg" xml:space="preserve" width="5.18512in" height="5.112in" version="1.1" style="shape-rendering:geometricPrecision; text-rendering:geometricPrecision; image-rendering:optimizeQuality; fill-rule:evenodd; clip-rule:evenodd"
viewBox="0 0 8934.07 8808.08"
 xmlns:xlink="http://www.w3.org/1999/xlink"
 xmlns:xodm="http://www.corel.com/coreldraw/odm/2003">
 <defs>
  <style type="text/css">
   <![CDATA[
    .fil0 {fill:red}
   ]]>
  </style>
 </defs>
 <g id="Layer_x0020_1">
  <metadata id="CorelCorpID_0Corel-Layer"/>
  <path class="fil0" d="M4496.46 2715.96c363.42,-301.07 1282.25,-599.38 1845.18,-276.07 -65.73,232.01 -104.25,240.46 -277.83,377.57 -764.21,-154.41 -732.78,-198.57 -1567.35,-101.5zm-39.66 -2715.96c1492.6,0 2814.4,718.61 3627.9,1823.12 -269.93,-9.23 -546.59,52.55 -821.58,10.64 -1192.02,-181.64 -2002.18,-627.8 -3510.31,297.09 -1747.3,1071.56 -1662.71,1273.05 -3681.88,1383.61 418.28,-2005.84 2222.95,-3514.46 4385.86,-3514.46zm4083.22 2594.91c253.13,551.92 394.04,1164.33 394.04,1809.12 0,1409.49 -673.17,2664.34 -1720.54,3470.36 154.85,-204.02 270.02,-433.13 332.77,-675.78 -26.59,69.58 -547.76,46.8 -785.72,-33.75 -1712.04,-579.53 -1377.17,-3268.11 789.24,-3679.29 159.55,302.86 127.27,799.66 115.36,1199.37 421.86,-290.07 462.85,-807.52 527.38,-1282.78 52.29,-385.17 238.19,-502.82 347.47,-807.24zm-2584.1 5959.89c-468.73,163.82 -973.27,253.27 -1499.12,253.27 -2328.36,0 -4241.33,-1748.32 -4456.8,-3983.11 346.65,311.29 846.55,461.06 1368.44,809.83 131.15,1065.92 219.98,1474.14 738.7,2149.2 826.61,-298.31 1262.73,-617.13 2343.98,-307.25 894.89,256.47 1264.62,802.74 1504.8,1078.06z"/>
 </g>
</svg>
