<?xml version="1.0" encoding="utf-8"?>
<!-- Generator: Adobe Illustrator 25.4.1, SVG Export Plug-In . SVG Version: 6.00 Build 0)  -->
<svg version="1.1" id="Layer_1" xmlns="http://www.w3.org/2000/svg" xmlns:xlink="http://www.w3.org/1999/xlink" x="0px" y="0px"
	 viewBox="0 0 361.21 65.59" style="enable-background:new 0 0 361.21 65.59;" xml:space="preserve">
<style type="text/css">
	.st0{fill:#D60909;}
</style>
<g>
	<path d="M98.14,18.86v11.77h4.69v3.81h-4.69v15.56h-6.85V15.05h13.67v3.81H98.14z"/>
	<path d="M114.18,22.15c2.56,0,4.73,0.5,6.53,1.5c1.82,1.01,2.73,2.22,2.73,3.63v18.13c0,1.41-0.91,2.62-2.73,3.63
		c-1.79,1-3.97,1.5-6.53,1.5c-2.53,0-4.71-0.5-6.53-1.5c-1.79-1.01-2.69-2.22-2.69-3.63V27.28c0-1.41,0.9-2.62,2.69-3.63
		C109.47,22.65,111.65,22.15,114.18,22.15z M111.89,45.86c0,0.35,0.23,0.64,0.69,0.88c0.43,0.24,0.96,0.36,1.59,0.36
		c0.62,0,1.17-0.12,1.63-0.36c0.43-0.24,0.65-0.54,0.65-0.88V26.83c0-0.35-0.22-0.64-0.65-0.88c-0.46-0.24-1.01-0.36-1.63-0.36
		c-0.63,0-1.16,0.12-1.59,0.36c-0.46,0.24-0.69,0.54-0.69,0.88V45.86z"/>
	<path d="M134.69,22.15c2.56,0,4.73,0.5,6.53,1.5c1.82,1.01,2.73,2.22,2.73,3.63v18.13c0,1.41-0.91,2.62-2.73,3.63
		c-1.79,1-3.97,1.5-6.53,1.5c-2.53,0-4.71-0.5-6.53-1.5c-1.79-1.01-2.69-2.22-2.69-3.63V27.28c0-1.41,0.9-2.62,2.69-3.63
		C129.99,22.65,132.16,22.15,134.69,22.15z M132.41,45.86c0,0.35,0.23,0.64,0.69,0.88c0.43,0.24,0.96,0.36,1.59,0.36
		s1.17-0.12,1.63-0.36c0.43-0.24,0.65-0.54,0.65-0.88V26.83c0-0.35-0.22-0.64-0.65-0.88c-0.46-0.24-1.01-0.36-1.63-0.36
		s-1.16,0.12-1.59,0.36c-0.46,0.24-0.69,0.54-0.69,0.88V45.86z"/>
	<path d="M157.62,23.24v-8.19h6.85v30.35c0,1.41-0.9,2.62-2.69,3.63c-1.82,1-4,1.5-6.53,1.5c-2.56,0-4.73-0.5-6.53-1.5
		c-1.82-1.01-2.73-2.22-2.73-3.63V27.28c0-3.42,2.33-5.13,6.98-5.13C155.28,22.15,156.83,22.52,157.62,23.24z M152.97,45.86
		c0,0.35,0.22,0.64,0.65,0.88c0.46,0.24,1.01,0.36,1.63,0.36c0.62,0,1.16-0.12,1.59-0.36c0.46-0.24,0.69-0.54,0.69-0.88V26.83
		c0-0.35-0.23-0.64-0.69-0.88c-0.44-0.24-0.97-0.36-1.59-0.36c-0.63,0-1.17,0.12-1.63,0.36c-0.44,0.24-0.65,0.54-0.65,0.88V45.86z"
		/>
	<path d="M187.03,15.05l-6.85,34.96h-6.81l-6.85-34.96h6.85l3.39,15.22l3.43-15.22H187.03z"/>
	<path d="M196.25,22.15c2.56,0,4.73,0.5,6.53,1.5c1.82,1.01,2.73,2.22,2.73,3.63v10.05h-11.54v8.53c0,0.35,0.23,0.64,0.69,0.88
		c0.43,0.24,0.96,0.36,1.59,0.36s1.17-0.12,1.63-0.36c0.43-0.24,0.65-0.54,0.65-0.88v-6.87h6.98v6.42c0,1.41-0.91,2.62-2.73,3.63
		c-1.79,1-3.97,1.5-6.53,1.5c-2.53,0-4.71-0.5-6.53-1.5c-1.79-1.01-2.69-2.22-2.69-3.63V27.28c0-1.41,0.9-2.62,2.69-3.63
		C191.54,22.65,193.72,22.15,196.25,22.15z M198.53,33.52v-6.69c0-0.35-0.22-0.64-0.65-0.88c-0.46-0.24-1.01-0.36-1.63-0.36
		s-1.16,0.12-1.59,0.36c-0.46,0.24-0.69,0.54-0.69,0.88v6.69H198.53z"/>
	<path d="M214.44,23.22c0.05-0.03,0.14-0.07,0.24-0.11c0.3-0.14,0.63-0.26,0.98-0.39c1.17-0.38,2.45-0.57,3.83-0.57
		c4.35,0,6.53,1.72,6.53,5.15v22.71h-6.98V26.85c0-0.35-0.22-0.65-0.65-0.91c-0.46-0.24-1.01-0.36-1.63-0.36
		c-0.63,0-1.16,0.12-1.59,0.36c-0.46,0.26-0.69,0.56-0.69,0.91v23.16h-6.93V22.65h6.85v0.59L214.44,23.22z"/>
	<path d="M239.69,23.24v-8.19h6.85v30.35c0,1.41-0.9,2.62-2.69,3.63c-1.82,1-4,1.5-6.53,1.5c-2.56,0-4.73-0.5-6.53-1.5
		c-1.82-1.01-2.73-2.22-2.73-3.63V27.28c0-3.42,2.32-5.13,6.97-5.13C237.35,22.15,238.9,22.52,239.69,23.24z M235.04,45.86
		c0,0.35,0.22,0.64,0.65,0.88c0.46,0.24,1.01,0.36,1.63,0.36c0.62,0,1.16-0.12,1.59-0.36c0.46-0.24,0.69-0.54,0.69-0.88V26.83
		c0-0.35-0.23-0.64-0.69-0.88c-0.44-0.24-0.97-0.36-1.59-0.36c-0.63,0-1.17,0.12-1.63,0.36c-0.44,0.24-0.65,0.54-0.65,0.88V45.86z"
		/>
	<path d="M257.8,22.15c2.56,0,4.73,0.5,6.53,1.5c1.82,1.01,2.73,2.22,2.73,3.63v18.13c0,1.41-0.91,2.62-2.73,3.63
		c-1.79,1-3.97,1.5-6.53,1.5c-2.53,0-4.71-0.5-6.53-1.5c-1.79-1.01-2.69-2.22-2.69-3.63V27.28c0-1.41,0.9-2.62,2.69-3.63
		C253.1,22.65,255.27,22.15,257.8,22.15z M255.52,45.86c0,0.35,0.23,0.64,0.69,0.88c0.44,0.24,0.97,0.36,1.59,0.36
		c0.62,0,1.17-0.12,1.63-0.36c0.44-0.24,0.65-0.54,0.65-0.88V26.83c0-0.35-0.22-0.64-0.65-0.88c-0.46-0.24-1.01-0.36-1.63-0.36
		c-0.63,0-1.16,0.12-1.59,0.36c-0.46,0.24-0.69,0.54-0.69,0.88V45.86z"/>
	<path d="M278.57,25.85c-0.63,0-1.2,0.12-1.71,0.36c-0.54,0.26-0.82,0.55-0.82,0.88v22.91h-6.93V22.65h6.85v0.88
		c-0.03,0-0.01-0.01,0.04-0.04c0.05-0.03,0.12-0.07,0.2-0.11c0.27-0.12,0.57-0.24,0.9-0.36c1.06-0.35,2.22-0.54,3.47-0.59v3.74
		C280.35,25.96,279.68,25.85,278.57,25.85z"/>
	<path d="M300.06,35.83c0,0.42-0.01,0.79-0.04,1.09c-0.08,0.8-0.27,1.44-0.57,1.93c-0.76,1.24-2.48,1.86-5.14,1.86h-4.85v9.3h-6.85
		V15.05h11.71c2.66,0,4.38,0.62,5.14,1.86c0.3,0.5,0.49,1.14,0.57,1.93c0.03,0.3,0.04,0.67,0.04,1.09V35.83z M293.33,20.52
		c0-0.68-0.39-1.15-1.18-1.41c-0.38-0.12-0.78-0.17-1.18-0.16h-1.51v17.85h1.51c0.41,0.01,0.8-0.04,1.18-0.16
		c0.79-0.26,1.18-0.73,1.18-1.41V20.52z"/>
	<path d="M308.96,50.01h-6.85V15.05h6.85V50.01z"/>
	<path d="M317.48,50.53c-4.32,0-6.49-1.71-6.49-5.13V22.68h6.98v23.19c0,0.35,0.22,0.64,0.65,0.88c0.44,0.24,0.97,0.36,1.59,0.36
		c0.62,0,1.17-0.12,1.63-0.36c0.44-0.24,0.65-0.54,0.65-0.88V22.68h6.98v27.36h-6.85v-0.61l-0.08,0.05
		c-0.05,0.04-0.14,0.09-0.24,0.14c-0.27,0.14-0.6,0.26-0.98,0.39C320.15,50.35,318.87,50.53,317.48,50.53z"/>
	<path d="M350.81,25.19h-1.26c0.54,0.68,0.82,1.38,0.82,2.11v13.04c0,1.41-0.91,2.62-2.73,3.63c-1.79,1-3.97,1.5-6.53,1.5
		c-0.71,0-1.43-0.05-2.16-0.16c-0.22-0.06-0.46-0.1-0.73-0.11c-0.03,0-0.08,0-0.16,0c-0.79,0.03-1.18,0.21-1.18,0.54
		c0,0.38,1.46,0.57,4.37,0.57c2.53,0,4.68,0.51,6.45,1.52c1.79,1,2.69,2.2,2.69,3.61v4.85c0,1.41-0.91,2.62-2.73,3.63
		c-1.79,1-3.97,1.5-6.53,1.5c-2.53,0-4.69-0.5-6.49-1.5c-1.82-1.01-2.73-2.22-2.73-3.63v-4.85c0-1.01,0.68-2.12,2.04-3.33
		c-1.61-0.68-2.38-1.44-2.33-2.27c0.05-0.83,0.88-1.51,2.49-2.04c-1.47-1.35-2.2-2.5-2.2-3.45V27.3c0-1.42,0.91-2.63,2.73-3.63
		c1.79-1,3.96-1.5,6.49-1.5c1.47,0,2.87,0.18,4.2,0.54h5.51V25.19z M343.39,26.85c0-0.35-0.22-0.64-0.65-0.88
		c-0.43-0.26-0.98-0.39-1.63-0.39c-0.62,0-1.16,0.13-1.59,0.39c-0.43,0.24-0.65,0.54-0.65,0.88V40.8c0,0.35,0.22,0.64,0.65,0.88
		c0.44,0.24,0.97,0.36,1.59,0.36c0.65,0,1.2-0.12,1.63-0.36c0.43-0.24,0.65-0.54,0.65-0.88V26.85z M338.86,56.75
		c0,0.35,0.22,0.64,0.65,0.88c0.44,0.24,0.97,0.36,1.59,0.36c0.65,0,1.2-0.12,1.63-0.36c0.43-0.24,0.65-0.54,0.65-0.88v-5.76
		c0-0.35-0.22-0.65-0.65-0.91c-0.43-0.24-0.98-0.36-1.63-0.36c-0.62,0-1.16,0.12-1.59,0.36c-0.43,0.26-0.65,0.56-0.65,0.91V56.75z"
		/>
</g>
<path class="st0" d="M58.31,53.22c0.84-2.04,1.52-3.67,2.38-5.76c-5.35-2.13-10.73-2.92-16.2-2c-6.39,1.07-12.7,2.66-19.07,3.85
	c-5.91,1.11-11.76,1.28-16.82-3.08c-6.14-5.29-8.02-14.39-4.69-22.35c3.22-7.7,11.22-12.39,18.82-11.03
	c0.69,0.12,1.37,0.27,2.19,0.43c2.92-8.75,8.17-14.34,17.1-14.61c8.73-0.26,14.35,4.73,17.51,12.41c3.89,0.22,7.55-0.14,10.92,0.74
	c6.2,1.61,10.27,6.1,11.47,12.91c1.19,6.76-1.79,12.01-6.38,16.21c-0.74,0.68-3.15,0.45-3.84-0.32c-0.77-0.86-0.9-3.01-0.48-4.28
	c0.5-1.47,2.05-2.48,2.89-3.86c2.54-4.17,2.12-8.27-1.02-11.52c-3.1-3.21-8.87-4.24-11.98-1.97c-0.81,0.59-1.25,1.77-1.82,2.7
	c-1.31,2.12-2.54,4.3-3.93,6.36c-1.22,1.81-2.77,1.94-4.25,0.34c-1.37-1.49-2.18-3.1-0.43-4.99c3.22-3.45,4.33-7.33,1.88-11.82
	C50.07,7,45.27,4.7,40.26,5.67c-4.19,0.81-8.1,4.72-8.8,9.1c-0.15,0.93,0.34,2.12,0.84,2.99c0.62,1.08,1.61,1.9,2.33,2.92
	c1.18,1.69,2.43,3.5,0.03,5.19c-2.18,1.54-3.69,1.04-5.37-1.33c-5.57-7.85-16.5-6.17-19.82,2.86c-2.99,8.15,2.16,16.08,10.41,15.53
	c4.4-0.29,8.77-1.33,13.11-2.27c10.36-2.26,20.66-3.2,30.89,0.66c4.52,1.7,5.03,2.9,3.14,7.69c-1.26,3.19-2.57,6.36-3.86,9.53
	c-0.87,2.15-2.39,3.67-4.5,2.47c-9.85-5.58-19.77-3.71-29.75-0.71c-2.03,0.61-3.77,0.67-4.53-2.1c-0.79-2.89,0.57-3.94,2.87-4.6
	C37.46,50.7,47.67,48.89,58.31,53.22z"/>
</svg>
