<svg width="186" height="28" viewBox="0 0 186 28" fill="none" xmlns="http://www.w3.org/2000/svg">
<path d="M30.437 6.8H32.549V15.984H37.637V18H30.437V6.8ZM45.3059 16.848C45.0925 17.3493 44.7939 17.7067 44.4099 17.92C44.0259 18.1227 43.5779 18.224 43.0659 18.224C42.5859 18.224 42.1325 18.1333 41.7059 17.952C41.2899 17.7707 40.9219 17.504 40.6019 17.152C40.2819 16.8 40.0259 16.3733 39.8339 15.872C39.6525 15.3707 39.5619 14.8 39.5619 14.16V13.904C39.5619 13.2747 39.6525 12.7093 39.8339 12.208C40.0152 11.7067 40.2605 11.28 40.5699 10.928C40.8792 10.576 41.2365 10.3093 41.6419 10.128C42.0579 9.936 42.5005 9.84 42.9699 9.84C43.5352 9.84 43.9885 9.936 44.3299 10.128C44.6819 10.32 44.9592 10.6187 45.1619 11.024H45.4499V10.064H47.4659V15.6C47.4659 15.92 47.6099 16.08 47.8979 16.08H48.2019V18H46.8259C46.4632 18 46.1645 17.8933 45.9299 17.68C45.7059 17.4667 45.5939 17.1893 45.5939 16.848H45.3059ZM43.5139 16.304C44.1005 16.304 44.5699 16.112 44.9219 15.728C45.2739 15.3333 45.4499 14.8 45.4499 14.128V13.936C45.4499 13.264 45.2739 12.736 44.9219 12.352C44.5699 11.9573 44.1005 11.76 43.5139 11.76C42.9272 11.76 42.4579 11.9573 42.1059 12.352C41.7539 12.736 41.5779 13.264 41.5779 13.936V14.128C41.5779 14.8 41.7539 15.3333 42.1059 15.728C42.4579 16.112 42.9272 16.304 43.5139 16.304ZM49.5828 10.064H52.9427V11.216H53.2308C53.3801 10.7787 53.6308 10.4427 53.9828 10.208C54.3454 9.96267 54.7774 9.84 55.2788 9.84C56.0681 9.84 56.7028 10.0907 57.1828 10.592C57.6628 11.0827 57.9028 11.8347 57.9028 12.848V13.2L55.8228 13.392V13.168C55.8228 12.7307 55.7108 12.384 55.4868 12.128C55.2628 11.8613 54.9268 11.728 54.4788 11.728C54.0308 11.728 53.6788 11.8827 53.4227 12.192C53.1668 12.5013 53.0388 12.944 53.0388 13.52V16.08H54.8628V18H49.3908V16.08H51.0228V11.984H49.5828V10.064ZM64.8996 16.848C64.6863 17.3493 64.3876 17.7067 64.0036 17.92C63.6196 18.1227 63.1716 18.224 62.6596 18.224C62.1796 18.224 61.7263 18.1333 61.2996 17.952C60.8836 17.7707 60.5156 17.504 60.1956 17.152C59.8756 16.8 59.6196 16.3733 59.4276 15.872C59.2463 15.3707 59.1556 14.8 59.1556 14.16V13.904C59.1556 13.2747 59.2463 12.7093 59.4276 12.208C59.609 11.7067 59.8543 11.28 60.1636 10.928C60.473 10.576 60.8303 10.3093 61.2356 10.128C61.6516 9.936 62.0943 9.84 62.5636 9.84C63.129 9.84 63.5823 9.936 63.9236 10.128C64.2756 10.32 64.553 10.6187 64.7556 11.024H65.0436V10.064H67.0596V15.6C67.0596 15.92 67.2036 16.08 67.4916 16.08H67.7956V18H66.4196C66.057 18 65.7583 17.8933 65.5236 17.68C65.2996 17.4667 65.1876 17.1893 65.1876 16.848H64.8996ZM63.1076 16.304C63.6943 16.304 64.1636 16.112 64.5156 15.728C64.8676 15.3333 65.0436 14.8 65.0436 14.128V13.936C65.0436 13.264 64.8676 12.736 64.5156 12.352C64.1636 11.9573 63.6943 11.76 63.1076 11.76C62.521 11.76 62.0516 11.9573 61.6996 12.352C61.3476 12.736 61.1716 13.264 61.1716 13.936V14.128C61.1716 14.8 61.3476 15.3333 61.6996 15.728C62.0516 16.112 62.521 16.304 63.1076 16.304ZM69.0005 10.064H71.1765L73.0485 17.04H73.3365L75.2085 10.064H77.3845L75.1125 18H71.2725L69.0005 10.064ZM81.1334 14.688C81.144 14.9227 81.1974 15.1413 81.2934 15.344C81.4 15.536 81.5387 15.7067 81.7094 15.856C81.8907 15.9947 82.0934 16.1067 82.3174 16.192C82.552 16.2667 82.7974 16.304 83.0534 16.304C83.5547 16.304 83.9387 16.2187 84.2054 16.048C84.472 15.8667 84.664 15.6533 84.7814 15.408L86.5094 16.368C86.4134 16.5707 86.28 16.784 86.1094 17.008C85.9387 17.2213 85.7147 17.4187 85.4374 17.6C85.1707 17.7813 84.84 17.9307 84.4454 18.048C84.0614 18.1653 83.608 18.224 83.0854 18.224C82.488 18.224 81.944 18.128 81.4534 17.936C80.9627 17.744 80.536 17.4667 80.1734 17.104C79.8214 16.7413 79.544 16.2987 79.3414 15.776C79.1494 15.2533 79.0534 14.6613 79.0534 14V13.904C79.0534 13.296 79.1547 12.7413 79.3574 12.24C79.5707 11.7387 79.8587 11.312 80.2214 10.96C80.584 10.608 81.0054 10.336 81.4854 10.144C81.976 9.94133 82.4987 9.84 83.0534 9.84C83.736 9.84 84.3227 9.96267 84.8134 10.208C85.304 10.4427 85.7094 10.7467 86.0294 11.12C86.3494 11.4827 86.584 11.888 86.7334 12.336C86.8827 12.7733 86.9574 13.2 86.9574 13.616V14.688H81.1334ZM83.0374 11.664C82.5254 11.664 82.1094 11.7973 81.7894 12.064C81.4694 12.32 81.2614 12.6187 81.1654 12.96H84.9094C84.8454 12.5867 84.6427 12.2773 84.3014 12.032C83.9707 11.7867 83.5494 11.664 83.0374 11.664ZM89.1063 16.08H91.8903V8.72H89.2023V6.8H93.9063V16.08H96.4983V18H89.1063V16.08ZM102.631 16.304C103.036 16.304 103.367 16.2453 103.623 16.128C103.89 16 104.092 15.8347 104.231 15.632C104.38 15.4187 104.482 15.1787 104.535 14.912C104.588 14.6347 104.615 14.352 104.615 14.064V13.776H106.727V14.064C106.727 15.3973 106.375 16.4267 105.671 17.152C104.978 17.8667 103.964 18.224 102.631 18.224C101.351 18.224 100.338 17.8347 99.5911 17.056C98.8445 16.2773 98.4711 15.1413 98.4711 13.648V11.152C98.4711 10.4373 98.5671 9.79733 98.7591 9.232C98.9511 8.656 99.2285 8.176 99.5911 7.792C99.9538 7.39733 100.391 7.09867 100.903 6.896C101.415 6.68267 101.991 6.576 102.631 6.576C103.292 6.576 103.879 6.672 104.391 6.864C104.903 7.056 105.33 7.33333 105.671 7.696C106.023 8.05867 106.284 8.496 106.455 9.008C106.636 9.52 106.727 10.096 106.727 10.736V11.024H104.615V10.736C104.615 10.4693 104.583 10.2027 104.519 9.936C104.455 9.66933 104.348 9.42933 104.199 9.216C104.05 9.00267 103.847 8.832 103.591 8.704C103.335 8.56533 103.015 8.496 102.631 8.496C102.279 8.496 101.975 8.56533 101.719 8.704C101.463 8.832 101.25 9.01333 101.079 9.248C100.908 9.472 100.78 9.73867 100.695 10.048C100.62 10.3467 100.583 10.6613 100.583 10.992V13.808C100.583 14.1707 100.62 14.5067 100.695 14.816C100.77 15.1147 100.887 15.376 101.047 15.6C101.207 15.824 101.415 16 101.671 16.128C101.938 16.2453 102.258 16.304 102.631 16.304ZM116.524 14.128C116.524 14.7893 116.412 15.376 116.188 15.888C115.964 16.3893 115.66 16.816 115.276 17.168C114.892 17.5093 114.449 17.7707 113.948 17.952C113.457 18.1333 112.94 18.224 112.396 18.224C111.852 18.224 111.329 18.1333 110.828 17.952C110.337 17.7707 109.9 17.5093 109.516 17.168C109.132 16.816 108.828 16.3893 108.604 15.888C108.38 15.376 108.268 14.7893 108.268 14.128V13.936C108.268 13.2853 108.38 12.7093 108.604 12.208C108.828 11.696 109.132 11.264 109.516 10.912C109.9 10.56 110.337 10.2933 110.828 10.112C111.329 9.93067 111.852 9.84 112.396 9.84C112.94 9.84 113.457 9.93067 113.948 10.112C114.449 10.2933 114.892 10.56 115.276 10.912C115.66 11.264 115.964 11.696 116.188 12.208C116.412 12.7093 116.524 13.2853 116.524 13.936V14.128ZM112.396 16.304C112.684 16.304 112.956 16.256 113.212 16.16C113.468 16.064 113.692 15.9253 113.884 15.744C114.076 15.5627 114.225 15.344 114.332 15.088C114.449 14.8213 114.508 14.5227 114.508 14.192V13.872C114.508 13.5413 114.449 13.248 114.332 12.992C114.225 12.7253 114.076 12.5013 113.884 12.32C113.692 12.1387 113.468 12 113.212 11.904C112.956 11.808 112.684 11.76 112.396 11.76C112.108 11.76 111.836 11.808 111.58 11.904C111.324 12 111.1 12.1387 110.908 12.32C110.716 12.5013 110.561 12.7253 110.444 12.992C110.337 13.248 110.284 13.5413 110.284 13.872V14.192C110.284 14.5227 110.337 14.8213 110.444 15.088C110.561 15.344 110.716 15.5627 110.908 15.744C111.1 15.9253 111.324 16.064 111.58 16.16C111.836 16.256 112.108 16.304 112.396 16.304ZM126.513 18H124.497V12.432C124.497 12.208 124.438 12.0427 124.321 11.936C124.214 11.8187 124.07 11.76 123.889 11.76C123.676 11.76 123.505 11.824 123.377 11.952C123.26 12.08 123.201 12.272 123.201 12.528V18H121.185V12.432C121.185 12.208 121.121 12.0427 120.993 11.936C120.876 11.8187 120.732 11.76 120.561 11.76C120.369 11.76 120.209 11.824 120.081 11.952C119.953 12.08 119.889 12.272 119.889 12.528V18H117.873V10.064H119.889V10.832H120.177C120.241 10.544 120.385 10.3093 120.609 10.128C120.844 9.936 121.148 9.84 121.521 9.84C121.873 9.84 122.172 9.936 122.417 10.128C122.662 10.3093 122.828 10.544 122.913 10.832H123.201C123.286 10.544 123.462 10.3093 123.729 10.128C124.006 9.936 124.348 9.84 124.753 9.84C125.286 9.84 125.713 10.0213 126.033 10.384C126.353 10.736 126.513 11.2267 126.513 11.856V18ZM136.31 18H134.294V12.432C134.294 12.208 134.235 12.0427 134.118 11.936C134.011 11.8187 133.867 11.76 133.686 11.76C133.472 11.76 133.302 11.824 133.174 11.952C133.056 12.08 132.998 12.272 132.998 12.528V18H130.982V12.432C130.982 12.208 130.918 12.0427 130.79 11.936C130.672 11.8187 130.528 11.76 130.358 11.76C130.166 11.76 130.006 11.824 129.878 11.952C129.75 12.08 129.686 12.272 129.686 12.528V18H127.67V10.064H129.686V10.832H129.974C130.038 10.544 130.182 10.3093 130.406 10.128C130.64 9.936 130.944 9.84 131.318 9.84C131.67 9.84 131.968 9.936 132.214 10.128C132.459 10.3093 132.624 10.544 132.71 10.832H132.998C133.083 10.544 133.259 10.3093 133.526 10.128C133.803 9.936 134.144 9.84 134.55 9.84C135.083 9.84 135.51 10.0213 135.83 10.384C136.15 10.736 136.31 11.2267 136.31 11.856V18ZM143.515 10.064H145.531V18H143.515V16.848H143.227C142.875 17.7653 142.117 18.224 140.955 18.224C140.56 18.224 140.192 18.16 139.851 18.032C139.509 17.904 139.211 17.7067 138.955 17.44C138.699 17.1733 138.496 16.8427 138.347 16.448C138.208 16.0427 138.139 15.568 138.139 15.024V10.064H140.155V14.608C140.155 15.1733 140.288 15.616 140.555 15.936C140.821 16.2453 141.221 16.4 141.755 16.4C142.363 16.4 142.805 16.208 143.083 15.824C143.371 15.4293 143.515 14.896 143.515 14.224V10.064ZM149.952 18H147.936V10.064H149.952V11.248H150.24C150.421 10.8 150.714 10.4533 151.12 10.208C151.525 9.96267 152 9.84 152.544 9.84C152.928 9.84 153.285 9.904 153.616 10.032C153.957 10.1493 154.256 10.336 154.512 10.592C154.768 10.848 154.965 11.1733 155.104 11.568C155.253 11.9627 155.328 12.432 155.328 12.976V18H153.312V13.488C153.312 12.9227 153.173 12.48 152.896 12.16C152.629 11.8293 152.24 11.664 151.728 11.664C151.13 11.664 150.682 11.8667 150.384 12.272C150.096 12.6667 149.952 13.2 149.952 13.872V18ZM157.876 16.08H160.564V11.984H158.068V10.064H162.58V16.08H164.884V18H157.876V16.08ZM163.076 7.712C163.076 7.92533 163.034 8.128 162.948 8.32C162.874 8.50133 162.767 8.66133 162.628 8.8C162.49 8.928 162.324 9.03467 162.132 9.12C161.951 9.19467 161.759 9.232 161.556 9.232C161.343 9.232 161.146 9.19467 160.964 9.12C160.783 9.03467 160.623 8.928 160.484 8.8C160.346 8.66133 160.234 8.50133 160.148 8.32C160.074 8.128 160.036 7.92533 160.036 7.712C160.036 7.49867 160.074 7.30133 160.148 7.12C160.234 6.928 160.346 6.768 160.484 6.64C160.623 6.50133 160.783 6.39467 160.964 6.32C161.146 6.23467 161.343 6.192 161.556 6.192C161.759 6.192 161.951 6.23467 162.132 6.32C162.324 6.39467 162.49 6.50133 162.628 6.64C162.767 6.768 162.874 6.928 162.948 7.12C163.034 7.30133 163.076 7.49867 163.076 7.712ZM167.305 10.064H169.657V6.8H171.673V10.064H174.537V11.984H171.673V15.6C171.673 15.92 171.817 16.08 172.105 16.08H174.249V18H170.889C170.527 18 170.228 17.8827 169.993 17.648C169.769 17.4133 169.657 17.1147 169.657 16.752V11.984H167.305V10.064ZM182.702 10.064H184.718V19.952C184.718 20.3147 184.601 20.6133 184.366 20.848C184.142 21.0827 183.849 21.2 183.486 21.2H178.766V19.28H182.27C182.558 19.28 182.702 19.12 182.702 18.8V16.848H182.414C182.062 17.7653 181.305 18.224 180.142 18.224C179.747 18.224 179.379 18.16 179.038 18.032C178.697 17.904 178.398 17.7067 178.142 17.44C177.886 17.1733 177.683 16.8427 177.534 16.448C177.395 16.0427 177.326 15.568 177.326 15.024V10.064H179.342V14.608C179.342 15.1733 179.475 15.616 179.742 15.936C180.009 16.2453 180.409 16.4 180.942 16.4C181.55 16.4 181.993 16.208 182.27 15.824C182.558 15.4293 182.702 14.896 182.702 14.224V10.064Z" fill="black"/>
<path d="M0 6.08018C1.57065 6.08018 3.06635 6.02665 4.55567 6.0975C5.54271 6.14473 6.0131 5.96053 5.927 4.79078C5.81059 3.21642 5.89829 1.64206 5.89829 0H23V9.98145H15.8563V11.9415H22.9841V21.9545H17.0985V28H0V6.08018ZM19.0726 15.9845H11.897V5.93849H19.0375V4.07917H9.94849V17.9918H19.0726V15.9845ZM3.94495 23.9476H13.0563V21.9891H5.88075C5.88075 18.2106 5.84727 14.5754 5.90467 10.9402C5.91902 10.0287 5.56981 9.81929 4.8124 9.89958C4.51421 9.93107 4.21762 9.98145 3.93539 10.0192L3.94495 23.9476Z" fill="#DC2626"/>
</svg>
